---
0.8.2-OSX-10.7: 
  simple_h264: |
    ffmpeg version 0.8.2, Copyright (c) 2000-2011 the FFmpeg developers
      built on Sep  4 2011 12:05:01 with clang 2.1 (tags/Apple/clang-163.7.1)
      configuration: --prefix=/usr/local/Cellar/ffmpeg/0.8.2 --enable-shared --enable-gpl --enable-version3 --enable-nonfree --enable-hardcoded-tables --enable-libx264 --enable-libfaac --enable-libmp3lame --enable-libtheora --enable-libvorbis --enable-libvpx --enable-libxvid --cc=clang
      libavutil    51.  9. 1 / 51.  9. 1
      libavcodec   53.  7. 0 / 53.  7. 0
      libavformat  53.  4. 0 / 53.  4. 0
      libavdevice  53.  1. 1 / 53.  1. 1
      libavfilter   2. 23. 0 /  2. 23. 0
      libswscale    2.  0. 0 /  2.  0. 0
      libpostproc  51.  2. 0 / 51.  2. 0
    [avi @ 0x7fe8bb848200] non-interleaved AVI
    Input #0, avi, from '/Users/gregory/Documents/open_source/rvideo/tasks/../spec/files/boat.avi':
      Metadata:
        creation_time   : 2005-07-24/ 14:58  
        encoder         : CASIO EX-Z55                  
      Duration: 00:00:15.16, start: 0.000000, bitrate: 2078 kb/s
        Stream #0.0: Video: mjpeg, yuvj420p, 320x240, 15.10 tbr, 15.10 tbn, 15.10 tbc
        Stream #0.1: Audio: adpcm_ima_wav, 11025 Hz, 1 channels, s16, 44 kb/s
    [buffer @ 0x7fe8bb418c40] w:320 h:240 pixfmt:yuvj420p tb:1/1000000 sar:0/1 sws_param:
    [libx264 @ 0x7fe8bb85aa00] using cpu capabilities: MMX2 SSE2Fast SSSE3 FastShuffle SSE4.2 AVX
    [libx264 @ 0x7fe8bb85aa00] profile High, level 2.0
    [libx264 @ 0x7fe8bb85aa00] 264 - core 115 - H.264/MPEG-4 AVC codec - Copyleft 2003-2011 - http://www.videolan.org/x264.html - options: cabac=1 ref=2 deblock=1:0:0 analyse=0x3:0x113 me=hex subme=6 psy=1 psy_rd=1.00:0.00 mixed_ref=1 me_range=16 chroma_me=1 trellis=1 8x8dct=1 cqm=0 deadzone=21,11 fast_pskip=1 chroma_qp_offset=-2 threads=1 sliced_threads=0 nr=0 decimate=1 interlaced=0 bluray_compat=0 constrained_intra=0 bframes=3 b_pyramid=2 b_adapt=1 b_bias=0 direct=1 weightb=1 open_gop=0 weightp=1 keyint=250 keyint_min=15 scenecut=40 intra_refresh=0 rc_lookahead=30 rc=abr mbtree=1 bitrate=500 ratetol=1.0 qcomp=0.60 qpmin=0 qpmax=69 qpstep=4 ip_ratio=1.40 aq=1:1.00
    Output #0, mp4, to '/var/folders/pb/2rjc9l6n2fj893l8b7p6pxx80000gn/T/d20110904-63028-qc8kz9/tmp479608.mp4':
      Metadata:
        creation_time   : 2005-07-24/ 14:58  
        encoder         : Lavf53.4.0
        Stream #0.0: Video: libx264, yuvj420p, 320x240, q=2-31, 500 kb/s, 500k tbn, 15.10 tbc
        Stream #0.1: Audio: libfaac, 44100 Hz, 2 channels, s16, 64 kb/s
    Stream mapping:
      Stream #0.0 -> #0.0
      Stream #0.1 -> #0.1
    Press [q] to stop, [?] for help
    frame=   63 fps=  0 q=30.0 size=     145kB time=00:00:01.98 bitrate= 599.8kbits/s    
    frame=  100 fps= 98 q=30.0 size=     305kB time=00:00:04.43 bitrate= 563.9kbits/s    
    frame=  138 fps= 91 q=30.0 size=     455kB time=00:00:06.95 bitrate= 535.8kbits/s    
    frame=  179 fps= 88 q=27.0 size=     593kB time=00:00:09.66 bitrate= 502.5kbits/s    
    frame=  213 fps= 84 q=29.0 size=     784kB time=00:00:11.91 bitrate= 538.8kbits/s    
    frame=  229 fps= 74 q=29.0 Lsize=     993kB time=00:00:15.03 bitrate= 541.3kbits/s    
    video:909kB audio:74kB global headers:0kB muxing overhead 0.989353%
    frame I:2     Avg QP:22.93  size: 11442
    [libx264 @ 0x7fe8bb85aa00] frame P:131   Avg QP:27.49  size:  5137
    [libx264 @ 0x7fe8bb85aa00] frame B:96    Avg QP:28.85  size:  2446
    [libx264 @ 0x7fe8bb85aa00] consecutive B-frames: 16.2% 83.8%  0.0%  0.0%
    [libx264 @ 0x7fe8bb85aa00] mb I  I16..4:  0.8% 98.3%  0.8%
    [libx264 @ 0x7fe8bb85aa00] mb P  I16..4:  1.1% 29.6%  0.4%  P16..4: 36.4% 17.2%  6.8%  0.0%  0.0%    skip: 8.5%
    [libx264 @ 0x7fe8bb85aa00] mb B  I16..4:  0.6% 15.8%  0.2%  B16..8: 33.5% 15.8%  1.6%  direct:18.9%  skip:13.7%  L0:18.1% L1:25.4% BI:56.5%
    [libx264 @ 0x7fe8bb85aa00] final ratefactor: 25.26
    [libx264 @ 0x7fe8bb85aa00] 8x8 transform intra:95.2% inter:72.1%
    [libx264 @ 0x7fe8bb85aa00] coded y,uvDC,uvAC intra: 82.1% 73.0% 26.0% inter: 48.0% 40.6% 1.6%
    [libx264 @ 0x7fe8bb85aa00] i16 v,h,dc,p: 22% 33% 17% 28%
    [libx264 @ 0x7fe8bb85aa00] i8 v,h,dc,ddl,ddr,vr,hd,vl,hu:  4% 43% 29%  2%  3%  1%  6%  2% 10%
    [libx264 @ 0x7fe8bb85aa00] i4 v,h,dc,ddl,ddr,vr,hd,vl,hu: 12% 29% 23%  4%  4%  3%  6%  5% 13%
    [libx264 @ 0x7fe8bb85aa00] i8c dc,h,v,p: 66% 18% 13%  3%
    [libx264 @ 0x7fe8bb85aa00] Weighted P-Frames: Y:0.8% UV:0.0%
    [libx264 @ 0x7fe8bb85aa00] ref P L0: 85.4% 14.6%
    [libx264 @ 0x7fe8bb85aa00] ref B L0: 94.0%  6.0%
    [libx264 @ 0x7fe8bb85aa00] kb/s:490.98

  broken_command: |
    ffmpeg version 0.8.2, Copyright (c) 2000-2011 the FFmpeg developers
      built on Sep  4 2011 12:05:01 with clang 2.1 (tags/Apple/clang-163.7.1)
      configuration: --prefix=/usr/local/Cellar/ffmpeg/0.8.2 --enable-shared --enable-gpl --enable-version3 --enable-nonfree --enable-hardcoded-tables --enable-libx264 --enable-libfaac --enable-libmp3lame --enable-libtheora --enable-libvorbis --enable-libvpx --enable-libxvid --cc=clang
      libavutil    51.  9. 1 / 51.  9. 1
      libavcodec   53.  7. 0 / 53.  7. 0
      libavformat  53.  4. 0 / 53.  4. 0
      libavdevice  53.  1. 1 / 53.  1. 1
      libavfilter   2. 23. 0 /  2. 23. 0
      libswscale    2.  0. 0 /  2.  0. 0
      libpostproc  51.  2. 0 / 51.  2. 0
    [avi @ 0x7fbb74048200] non-interleaved AVI
    Input #0, avi, from '/Users/gregory/Documents/open_source/rvideo/tasks/../spec/files/boat.avi':
      Metadata:
        creation_time   : 2005-07-24/ 14:58  
        encoder         : CASIO EX-Z55                  
      Duration: 00:00:15.16, start: 0.000000, bitrate: 2078 kb/s
        Stream #0.0: Video: mjpeg, yuvj420p, 320x240, 15.10 tbr, 15.10 tbn, 15.10 tbc
        Stream #0.1: Audio: adpcm_ima_wav, 11025 Hz, 1 channels, s16, 44 kb/s
    [NULL @ 0x7fbb74042000] Unable to find a suitable output format for '/var/folders/pb/2rjc9l6n2fj893l8b7p6pxx80000gn/T/d20110904-63028-qc8kz9/tmp741203.mp4.foo'
    /var/folders/pb/2rjc9l6n2fj893l8b7p6pxx80000gn/T/d20110904-63028-qc8kz9/tmp741203.mp4.foo: Invalid argument

  missing_input_file: |
    ffmpeg version 0.8.2, Copyright (c) 2000-2011 the FFmpeg developers
      built on Sep  4 2011 12:05:01 with clang 2.1 (tags/Apple/clang-163.7.1)
      configuration: --prefix=/usr/local/Cellar/ffmpeg/0.8.2 --enable-shared --enable-gpl --enable-version3 --enable-nonfree --enable-hardcoded-tables --enable-libx264 --enable-libfaac --enable-libmp3lame --enable-libtheora --enable-libvorbis --enable-libvpx --enable-libxvid --cc=clang
      libavutil    51.  9. 1 / 51.  9. 1
      libavcodec   53.  7. 0 / 53.  7. 0
      libavformat  53.  4. 0 / 53.  4. 0
      libavdevice  53.  1. 1 / 53.  1. 1
      libavfilter   2. 23. 0 /  2. 23. 0
      libswscale    2.  0. 0 /  2.  0. 0
      libpostproc  51.  2. 0 / 51.  2. 0
    missingfile.avi: No such file or directory

  android: |
    ffmpeg version 0.8.2, Copyright (c) 2000-2011 the FFmpeg developers
      built on Sep  4 2011 12:05:01 with clang 2.1 (tags/Apple/clang-163.7.1)
      configuration: --prefix=/usr/local/Cellar/ffmpeg/0.8.2 --enable-shared --enable-gpl --enable-version3 --enable-nonfree --enable-hardcoded-tables --enable-libx264 --enable-libfaac --enable-libmp3lame --enable-libtheora --enable-libvorbis --enable-libvpx --enable-libxvid --cc=clang
      libavutil    51.  9. 1 / 51.  9. 1
      libavcodec   53.  7. 0 / 53.  7. 0
      libavformat  53.  4. 0 / 53.  4. 0
      libavdevice  53.  1. 1 / 53.  1. 1
      libavfilter   2. 23. 0 /  2. 23. 0
      libswscale    2.  0. 0 /  2.  0. 0
      libpostproc  51.  2. 0 / 51.  2. 0
    [avi @ 0x7f8241048200] non-interleaved AVI
    Input #0, avi, from '/Users/gregory/Documents/open_source/rvideo/tasks/../spec/files/boat.avi':
      Metadata:
        creation_time   : 2005-07-24/ 14:58  
        encoder         : CASIO EX-Z55                  
      Duration: 00:00:15.16, start: 0.000000, bitrate: 2078 kb/s
        Stream #0.0: Video: mjpeg, yuvj420p, 320x240, 15.10 tbr, 15.10 tbn, 15.10 tbc
        Stream #0.1: Audio: adpcm_ima_wav, 11025 Hz, 1 channels, s16, 44 kb/s
    Incompatible pixel format 'yuvj420p' for codec 'mpeg4', auto-selecting format 'yuv420p'
    [buffer @ 0x7f8240c18fa0] w:320 h:240 pixfmt:yuvj420p tb:1/1000000 sar:0/1 sws_param:
    [scale @ 0x7f8240c19e60] w:320 h:240 fmt:yuvj420p -> w:400 h:300 fmt:yuv420p flags:0x4
    Output #0, mp4, to '/var/folders/pb/2rjc9l6n2fj893l8b7p6pxx80000gn/T/d20110904-63028-qc8kz9/tmp101428.mp4':
      Metadata:
        creation_time   : 2005-07-24/ 14:58  
        encoder         : Lavf53.4.0
        Stream #0.0: Video: mpeg4, yuv420p, 400x300, q=2-31, 436 kb/s, 25 tbn, 25 tbc
        Stream #0.1: Audio: libfaac, 48000 Hz, 1 channels, s16, 48 kb/s
    Stream mapping:
      Stream #0.0 -> #0.0
      Stream #0.1 -> #0.1
    Press [q] to stop, [?] for help
    frame=  275 fps=  0 q=9.4 size=     660kB time=00:00:10.92 bitrate= 494.7kbits/s dup=108 drop=0    
    frame=  377 fps=  0 q=6.2 Lsize=     911kB time=00:00:15.08 bitrate= 494.7kbits/s dup=148 drop=0    
    video:812kB audio:89kB global headers:0kB muxing overhead 1.077030%

  output_has_no_streams: |
    ffmpeg version 0.8.2, Copyright (c) 2000-2011 the FFmpeg developers
      built on Sep  4 2011 12:05:01 with clang 2.1 (tags/Apple/clang-163.7.1)
      configuration: --prefix=/usr/local/Cellar/ffmpeg/0.8.2 --enable-shared --enable-gpl --enable-version3 --enable-nonfree --enable-hardcoded-tables --enable-libx264 --enable-libfaac --enable-libmp3lame --enable-libtheora --enable-libvorbis --enable-libvpx --enable-libxvid --cc=clang
      libavutil    51.  9. 1 / 51.  9. 1
      libavcodec   53.  7. 0 / 53.  7. 0
      libavformat  53.  4. 0 / 53.  4. 0
      libavdevice  53.  1. 1 / 53.  1. 1
      libavfilter   2. 23. 0 /  2. 23. 0
      libswscale    2.  0. 0 /  2.  0. 0
      libpostproc  51.  2. 0 / 51.  2. 0
    [avi @ 0x7fe172848200] non-interleaved AVI
    Input #0, avi, from '/Users/gregory/Documents/open_source/rvideo/tasks/../spec/files/boat.avi':
      Metadata:
        creation_time   : 2005-07-24/ 14:58  
        encoder         : CASIO EX-Z55                  
      Duration: 00:00:15.16, start: 0.000000, bitrate: 2078 kb/s
        Stream #0.0: Video: mjpeg, yuvj420p, 320x240, 15.10 tbr, 15.10 tbn, 15.10 tbc
        Stream #0.1: Audio: adpcm_ima_wav, 11025 Hz, 1 channels, s16, 44 kb/s
    Output #0, mp4, to '/var/folders/pb/2rjc9l6n2fj893l8b7p6pxx80000gn/T/d20110904-63028-qc8kz9/tmp640519.mp4':
    Output file #0 does not contain any stream

  amr_nb_not_supported: |
    ffmpeg version 0.8.2, Copyright (c) 2000-2011 the FFmpeg developers
      built on Sep  4 2011 12:05:01 with clang 2.1 (tags/Apple/clang-163.7.1)
      configuration: --prefix=/usr/local/Cellar/ffmpeg/0.8.2 --enable-shared --enable-gpl --enable-version3 --enable-nonfree --enable-hardcoded-tables --enable-libx264 --enable-libfaac --enable-libmp3lame --enable-libtheora --enable-libvorbis --enable-libvpx --enable-libxvid --cc=clang
      libavutil    51.  9. 1 / 51.  9. 1
      libavcodec   53.  7. 0 / 53.  7. 0
      libavformat  53.  4. 0 / 53.  4. 0
      libavdevice  53.  1. 1 / 53.  1. 1
      libavfilter   2. 23. 0 /  2. 23. 0
      libswscale    2.  0. 0 /  2.  0. 0
      libpostproc  51.  2. 0 / 51.  2. 0
    [avi @ 0x7fa002048200] non-interleaved AVI
    Input #0, avi, from '/Users/gregory/Documents/open_source/rvideo/tasks/../spec/files/boat.avi':
      Metadata:
        creation_time   : 2005-07-24/ 14:58  
        encoder         : CASIO EX-Z55                  
      Duration: 00:00:15.16, start: 0.000000, bitrate: 2078 kb/s
        Stream #0.0: Video: mjpeg, yuvj420p, 320x240, 15.10 tbr, 15.10 tbn, 15.10 tbc
        Stream #0.1: Audio: adpcm_ima_wav, 11025 Hz, 1 channels, s16, 44 kb/s
    WARNING: The bitrate parameter is set too low. It takes bits/s as argument, not kbits/s
    Unknown encoder 'amr_nb'

  missing_command: |+
    ffmpeg version 0.8.2, Copyright (c) 2000-2011 the FFmpeg developers
      built on Sep  4 2011 12:05:01 with clang 2.1 (tags/Apple/clang-163.7.1)
      configuration: --prefix=/usr/local/Cellar/ffmpeg/0.8.2 --enable-shared --enable-gpl --enable-version3 --enable-nonfree --enable-hardcoded-tables --enable-libx264 --enable-libfaac --enable-libmp3lame --enable-libtheora --enable-libvorbis --enable-libvpx --enable-libxvid --cc=clang
      libavutil    51.  9. 1 / 51.  9. 1
      libavcodec   53.  7. 0 / 53.  7. 0
      libavformat  53.  4. 0 / 53.  4. 0
      libavdevice  53.  1. 1 / 53.  1. 1
      libavfilter   2. 23. 0 /  2. 23. 0
      libswscale    2.  0. 0 /  2.  0. 0
      libpostproc  51.  2. 0 / 51.  2. 0
    Use -h to get full help or, even better, run 'man ffmpeg'
    Hyper fast Audio and Video encoder
    usage: ffmpeg [options] [[infile options] -i infile]... {[outfile options] outfile}...
    
  unwritable_stream: |
    ffmpeg version 0.8.2, Copyright (c) 2000-2011 the FFmpeg developers
      built on Sep  4 2011 12:05:01 with clang 2.1 (tags/Apple/clang-163.7.1)
      configuration: --prefix=/usr/local/Cellar/ffmpeg/0.8.2 --enable-shared --enable-gpl --enable-version3 --enable-nonfree --enable-hardcoded-tables --enable-libx264 --enable-libfaac --enable-libmp3lame --enable-libtheora --enable-libvorbis --enable-libvpx --enable-libxvid --cc=clang
      libavutil    51.  9. 1 / 51.  9. 1
      libavcodec   53.  7. 0 / 53.  7. 0
      libavformat  53.  4. 0 / 53.  4. 0
      libavdevice  53.  1. 1 / 53.  1. 1
      libavfilter   2. 23. 0 /  2. 23. 0
      libswscale    2.  0. 0 /  2.  0. 0
      libpostproc  51.  2. 0 / 51.  2. 0
    [avi @ 0x7fded3848200] non-interleaved AVI
    Input #0, avi, from '/Users/gregory/Documents/open_source/rvideo/tasks/../spec/files/boat.avi':
      Metadata:
        creation_time   : 2005-07-24/ 14:58  
        encoder         : CASIO EX-Z55                  
      Duration: 00:00:15.16, start: 0.000000, bitrate: 2078 kb/s
        Stream #0.0: Video: mjpeg, yuvj420p, 320x240, 15.10 tbr, 15.10 tbn, 15.10 tbc
        Stream #0.1: Audio: adpcm_ima_wav, 11025 Hz, 1 channels, s16, 44 kb/s
    Incompatible pixel format 'yuvj420p' for codec 'flv', auto-selecting format 'yuv420p'
    [buffer @ 0x102319660] w:320 h:240 pixfmt:yuvj420p tb:1/1000000 sar:0/1 sws_param:
    [buffersink @ 0x102319a40] auto-inserting filter 'auto-inserted scaler 0' between the filter 'src' and the filter 'out'
    [scale @ 0x102319d40] w:320 h:240 fmt:yuvj420p -> w:320 h:240 fmt:yuv420p flags:0x4
    [libmp3lame @ 0x7fded3860600] flv does not support that sample rate, choose from (44100, 22050, 11025).
    Output #0, flv, to '/var/folders/pb/2rjc9l6n2fj893l8b7p6pxx80000gn/T/d20110904-63028-qc8kz9/tmp831275.mp4.flv':
      Metadata:
        creation_time   : 2005-07-24/ 14:58  
        encoder         : Lavf53.4.0
        Stream #0.0: Video: flv, yuv420p, 320x240, q=2-31, 200 kb/s, 1k tbn, 15.10 tbc
        Stream #0.1: Audio: libmp3lame, 48000 Hz, 1 channels, s16, 64 kb/s
    Stream mapping:
      Stream #0.0 -> #0.0
      Stream #0.1 -> #0.1
    Could not write header for output file #0 (incorrect codec parameters ?)

  iphone: |
    ffmpeg version 0.8.2, Copyright (c) 2000-2011 the FFmpeg developers
      built on Sep  4 2011 12:05:01 with clang 2.1 (tags/Apple/clang-163.7.1)
      configuration: --prefix=/usr/local/Cellar/ffmpeg/0.8.2 --enable-shared --enable-gpl --enable-version3 --enable-nonfree --enable-hardcoded-tables --enable-libx264 --enable-libfaac --enable-libmp3lame --enable-libtheora --enable-libvorbis --enable-libvpx --enable-libxvid --cc=clang
      libavutil    51.  9. 1 / 51.  9. 1
      libavcodec   53.  7. 0 / 53.  7. 0
      libavformat  53.  4. 0 / 53.  4. 0
      libavdevice  53.  1. 1 / 53.  1. 1
      libavfilter   2. 23. 0 /  2. 23. 0
      libswscale    2.  0. 0 /  2.  0. 0
      libpostproc  51.  2. 0 / 51.  2. 0
    [avi @ 0x7f9192048200] non-interleaved AVI
    Input #0, avi, from '/Users/gregory/Documents/open_source/rvideo/tasks/../spec/files/boat.avi':
      Metadata:
        creation_time   : 2005-07-24/ 14:58  
        encoder         : CASIO EX-Z55                  
      Duration: 00:00:15.16, start: 0.000000, bitrate: 2078 kb/s
        Stream #0.0: Video: mjpeg, yuvj420p, 320x240, 15.10 tbr, 15.10 tbn, 15.10 tbc
        Stream #0.1: Audio: adpcm_ima_wav, 11025 Hz, 1 channels, s16, 44 kb/s
    [buffer @ 0x7f9191c1a2c0] w:320 h:240 pixfmt:yuvj420p tb:1/1000000 sar:0/1 sws_param:
    [scale @ 0x7f9191c19b20] w:320 h:240 fmt:yuvj420p -> w:640 h:480 fmt:yuvj420p flags:0x4
    [libx264 @ 0x7f919205aa00] using cpu capabilities: MMX2 SSE2Fast SSSE3 FastShuffle SSE4.2 AVX
    [libx264 @ 0x7f919205aa00] profile Main, level 3.0
    [libx264 @ 0x7f919205aa00] 264 - core 115 - H.264/MPEG-4 AVC codec - Copyleft 2003-2011 - http://www.videolan.org/x264.html - options: cabac=0 ref=3 deblock=1:0:0 analyse=0x1:0x111 me=dia subme=5 psy=1 psy_rd=1.00:0.00 mixed_ref=0 me_range=16 chroma_me=1 trellis=1 8x8dct=0 cqm=0 deadzone=21,11 fast_pskip=1 chroma_qp_offset=0 threads=12 sliced_threads=0 nr=0 decimate=1 interlaced=0 bluray_compat=0 constrained_intra=0 bframes=0 weightp=2 keyint=100 keyint_min=25 scenecut=40 intra_refresh=0 rc_lookahead=40 rc=cbr mbtree=1 bitrate=440 ratetol=1.0 qcomp=0.60 qpmin=10 qpmax=51 qpstep=4 vbv_maxrate=440 vbv_bufsize=10000 nal_hrd=none ip_ratio=1.41 aq=1:1.00
    Output #0, mp4, to '/var/folders/pb/2rjc9l6n2fj893l8b7p6pxx80000gn/T/d20110904-63028-qc8kz9/tmp392941.mp4':
      Metadata:
        creation_time   : 2005-07-24/ 14:58  
        encoder         : Lavf53.4.0
        Stream #0.0: Video: libx264, yuvj420p, 640x480, q=10-51, 440 kb/s, 25 tbn, 25 tbc
        Stream #0.1: Audio: libfaac, 48000 Hz, 1 channels, s16, 48 kb/s
    Stream mapping:
      Stream #0.0 -> #0.0
      Stream #0.1 -> #0.1
    Press [q] to stop, [?] for help
    frame=  136 fps=  0 q=39.0 size=     196kB time=00:00:03.32 bitrate= 484.0kbits/s dup=53 drop=0    
    frame=  260 fps=256 q=38.0 size=     481kB time=00:00:08.28 bitrate= 475.5kbits/s dup=102 drop=0    
    frame=  377 fps=230 q=-1.0 Lsize=     863kB time=00:00:15.08 bitrate= 469.0kbits/s dup=148 drop=0    
    video:764kB audio:89kB global headers:0kB muxing overhead 1.134934%
    frame I:9     Avg QP:33.00  size:  8590
    [libx264 @ 0x7f919205aa00] frame P:368   Avg QP:36.41  size:  1915
    [libx264 @ 0x7f919205aa00] mb I  I16..4: 75.9%  0.0% 24.1%
    [libx264 @ 0x7f919205aa00] mb P  I16..4: 13.2%  0.0%  0.7%  P16..4: 21.0%  3.0%  0.3%  0.0%  0.0%    skip:61.9%
    [libx264 @ 0x7f919205aa00] coded y,uvDC,uvAC intra: 24.2% 32.5% 0.9% inter: 5.3% 9.4% 0.0%
    [libx264 @ 0x7f919205aa00] i16 v,h,dc,p: 19% 47% 22% 11%
    [libx264 @ 0x7f919205aa00] i4 v,h,dc,ddl,ddr,vr,hd,vl,hu: 10% 40% 27%  2%  4%  2%  5%  2%  9%
    [libx264 @ 0x7f919205aa00] i8c dc,h,v,p: 82% 10%  7%  1%
    [libx264 @ 0x7f919205aa00] Weighted P-Frames: Y:0.0% UV:0.0%
    [libx264 @ 0x7f919205aa00] ref P L0: 70.6% 15.0%  9.7%  4.7%
    [libx264 @ 0x7f919205aa00] kb/s:414.95

  unexpected_results: |
    ffmpeg version 0.8.2, Copyright (c) 2000-2011 the FFmpeg developers
      built on Sep  4 2011 12:05:01 with clang 2.1 (tags/Apple/clang-163.7.1)
      configuration: --prefix=/usr/local/Cellar/ffmpeg/0.8.2 --enable-shared --enable-gpl --enable-version3 --enable-nonfree --enable-hardcoded-tables --enable-libx264 --enable-libfaac --enable-libmp3lame --enable-libtheora --enable-libvorbis --enable-libvpx --enable-libxvid --cc=clang
      libavutil    51.  9. 1 / 51.  9. 1
      libavcodec   53.  7. 0 / 53.  7. 0
      libavformat  53.  4. 0 / 53.  4. 0
      libavdevice  53.  1. 1 / 53.  1. 1
      libavfilter   2. 23. 0 /  2. 23. 0
      libswscale    2.  0. 0 /  2.  0. 0
      libpostproc  51.  2. 0 / 51.  2. 0
    [avi @ 0x7fb45c048200] non-interleaved AVI
    Input #0, avi, from '/Users/gregory/Documents/open_source/rvideo/tasks/../spec/files/boat.avi':
      Metadata:
        creation_time   : 2005-07-24/ 14:58  
        encoder         : CASIO EX-Z55                  
      Duration: 00:00:15.16, start: 0.000000, bitrate: 2078 kb/s
        Stream #0.0: Video: mjpeg, yuvj420p, 320x240, 15.10 tbr, 15.10 tbn, 15.10 tbc
        Stream #0.1: Audio: adpcm_ima_wav, 11025 Hz, 1 channels, s16, 44 kb/s
    [buffer @ 0x7fb45bc18c40] w:320 h:240 pixfmt:yuvj420p tb:1/1000000 sar:0/1 sws_param:
    [libx264 @ 0x7fb45c05aa00] using cpu capabilities: MMX2 SSE2Fast SSSE3 FastShuffle SSE4.2 AVX
    [libx264 @ 0x7fb45c05aa00] profile High, level 2.0
    [libx264 @ 0x7fb45c05aa00] 264 - core 115 - H.264/MPEG-4 AVC codec - Copyleft 2003-2011 - http://www.videolan.org/x264.html - options: cabac=1 ref=2 deblock=1:0:0 analyse=0x3:0x113 me=hex subme=6 psy=1 psy_rd=1.00:0.00 mixed_ref=1 me_range=16 chroma_me=1 trellis=1 8x8dct=1 cqm=0 deadzone=21,11 fast_pskip=1 chroma_qp_offset=-2 threads=1 sliced_threads=0 nr=0 decimate=1 interlaced=0 bluray_compat=0 constrained_intra=0 bframes=3 b_pyramid=2 b_adapt=1 b_bias=0 direct=1 weightb=1 open_gop=0 weightp=1 keyint=250 keyint_min=15 scenecut=40 intra_refresh=0 rc_lookahead=30 rc=abr mbtree=1 bitrate=500 ratetol=1.0 qcomp=0.60 qpmin=0 qpmax=69 qpstep=4 ip_ratio=1.40 aq=1:1.00
    Output #0, mp4, to '/var/folders/pb/2rjc9l6n2fj893l8b7p6pxx80000gn/T/d20110904-63028-qc8kz9/tmp854747.mp4':
      Metadata:
        creation_time   : 2005-07-24/ 14:58  
        encoder         : Lavf53.4.0
        Stream #0.0: Video: libx264, yuvj420p, 320x240, q=2-31, 500 kb/s, 500k tbn, 15.10 tbc
        Stream #0.1: Audio: libfaac, 44100 Hz, 2 channels, s16, 64 kb/s
    Stream mapping:
      Stream #0.0 -> #0.0
      Stream #0.1 -> #0.1
    Press [q] to stop, [?] for help
    foo
    bar
  param_missing_value: |
    ffmpeg version 0.8.2, Copyright (c) 2000-2011 the FFmpeg developers
      built on Sep  4 2011 12:05:01 with clang 2.1 (tags/Apple/clang-163.7.1)
      configuration: --prefix=/usr/local/Cellar/ffmpeg/0.8.2 --enable-shared --enable-gpl --enable-version3 --enable-nonfree --enable-hardcoded-tables --enable-libx264 --enable-libfaac --enable-libmp3lame --enable-libtheora --enable-libvorbis --enable-libvpx --enable-libxvid --cc=clang
      libavutil    51.  9. 1 / 51.  9. 1
      libavcodec   53.  7. 0 / 53.  7. 0
      libavformat  53.  4. 0 / 53.  4. 0
      libavdevice  53.  1. 1 / 53.  1. 1
      libavfilter   2. 23. 0 /  2. 23. 0
      libswscale    2.  0. 0 /  2.  0. 0
      libpostproc  51.  2. 0 / 51.  2. 0
    Input #0, mov,mp4,m4a,3gp,3g2,mj2, from 'spec/files/kites.mp4':
      Metadata:
        major_brand     : 3gp4
        minor_version   : 256
        compatible_brands: 3gp53gp4isom
      Duration: 00:00:19.60, start: 0.000000, bitrate: 98 kb/s
        Stream #0.0(und): Video: mpeg4, yuv420p, 176x144 [PAR 1:1 DAR 11:9], 85 kb/s, PAR 12:11 DAR 4:3, 10 fps, 10 tbr, 1k tbn, 10 tbc
        Stream #0.1(und): Audio: amrnb, 8000 Hz, 1 channels, flt, 7 kb/s
    Expected number for ar but found: -b

